# xmcd
#
# Track frame offsets: 
#        187
#        15320
#        38997
#        55032
#        72372
#        87990
#        103705
#        122352
#        136620
#        152210
#
# Disc length: 2254 seconds
#
# Revision: 2
# Processed by: cddbd v1.5.2PL0 Copyright (c) Steve Scherf et al.
# Submitted via: ExactAudioCopy v1.1
#
DISCID=7508cc0a
DTITLE=Al Green - One In A Million
DYEAR=1991
DGENRE=Soul
TTITLE0=Too Close
TTITLE1=Where Love Rules
TTITLE2=Amazing Grace
TTITLE3=Saved
TTITLE4=The Old Rugged Cross
TTITLE5=The Lord Will Make A Way
TTITLE6=No Not One
TTITLE7=Pass Me Not
TTITLE8=In The Holy Name Of Jesus
TTITLE9=None But The Righteous
EXTD=
EXTT0=
EXTT1=
EXTT2=
EXTT3=
EXTT4=
EXTT5=
EXTT6=
EXTT7=
EXTT8=
EXTT9=
PLAYORDER=
